<mxfile host="app.diagrams.net" modified="2023-06-18T11:30:42.552Z" agent="Mozilla/5.0 (Macintosh; Intel Mac OS X 10_15_7) AppleWebKit/605.1.15 (KHTML, like Gecko) Version/16.2 Safari/605.1.15" etag="QglmXanYAEIQOwY8w3SE" version="21.4.0" type="device">
  <diagram id="C5RBs43oDa-KdzZeNtuy" name="Page-1">
    <mxGraphModel dx="1873" dy="1190" grid="1" gridSize="10" guides="1" tooltips="1" connect="1" arrows="1" fold="1" page="1" pageScale="1" pageWidth="827" pageHeight="1169" math="0" shadow="0">
      <root>
        <mxCell id="WIyWlLk6GJQsqaUBKTNV-0" />
        <mxCell id="WIyWlLk6GJQsqaUBKTNV-1" parent="WIyWlLk6GJQsqaUBKTNV-0" />
        <mxCell id="WIyWlLk6GJQsqaUBKTNV-2" value="" style="rounded=0;html=1;jettySize=auto;orthogonalLoop=1;fontSize=11;endArrow=classic;endFill=1;endSize=8;strokeWidth=1;shadow=0;labelBackgroundColor=none;edgeStyle=orthogonalEdgeStyle;noEdgeStyle=1;orthogonal=1;" parent="WIyWlLk6GJQsqaUBKTNV-1" source="WIyWlLk6GJQsqaUBKTNV-3" target="WIyWlLk6GJQsqaUBKTNV-6" edge="1">
          <mxGeometry relative="1" as="geometry" />
        </mxCell>
        <mxCell id="WIyWlLk6GJQsqaUBKTNV-3" value="Team selects a tile" style="rounded=1;whiteSpace=wrap;html=1;fontSize=12;glass=0;strokeWidth=1;shadow=0;" parent="WIyWlLk6GJQsqaUBKTNV-1" vertex="1">
          <mxGeometry x="481" y="1" width="120" height="40" as="geometry" />
        </mxCell>
        <mxCell id="WIyWlLk6GJQsqaUBKTNV-4" value="Yes" style="rounded=0;html=1;jettySize=auto;orthogonalLoop=1;fontSize=11;endArrow=classic;endFill=1;endSize=8;strokeWidth=1;shadow=0;labelBackgroundColor=none;edgeStyle=orthogonalEdgeStyle;entryX=0.5;entryY=0;entryDx=0;entryDy=0;noEdgeStyle=1;orthogonal=1;exitX=0;exitY=0.5;exitDx=0;exitDy=0;" parent="WIyWlLk6GJQsqaUBKTNV-1" source="WIyWlLk6GJQsqaUBKTNV-6" target="M9_Mo9AFQXyw3iN4CUYF-0" edge="1">
          <mxGeometry y="20" relative="1" as="geometry">
            <mxPoint as="offset" />
            <mxPoint x="220" y="290" as="targetPoint" />
          </mxGeometry>
        </mxCell>
        <mxCell id="WIyWlLk6GJQsqaUBKTNV-5" value="No, it&#39;s black" style="edgeStyle=orthogonalEdgeStyle;rounded=0;html=1;jettySize=auto;orthogonalLoop=1;fontSize=11;endArrow=classic;endFill=1;endSize=8;strokeWidth=1;shadow=0;labelBackgroundColor=none;noEdgeStyle=1;orthogonal=1;exitX=1;exitY=0.5;exitDx=0;exitDy=0;" parent="WIyWlLk6GJQsqaUBKTNV-1" source="WIyWlLk6GJQsqaUBKTNV-6" target="WIyWlLk6GJQsqaUBKTNV-7" edge="1">
          <mxGeometry y="10" relative="1" as="geometry">
            <mxPoint as="offset" />
          </mxGeometry>
        </mxCell>
        <mxCell id="WIyWlLk6GJQsqaUBKTNV-6" value="Is the tile empty?" style="rhombus;whiteSpace=wrap;html=1;shadow=0;fontFamily=Helvetica;fontSize=12;align=center;strokeWidth=1;spacing=6;spacingTop=-4;" parent="WIyWlLk6GJQsqaUBKTNV-1" vertex="1">
          <mxGeometry x="491" y="91" width="100" height="80" as="geometry" />
        </mxCell>
        <mxCell id="M9_Mo9AFQXyw3iN4CUYF-29" style="edgeStyle=orthogonalEdgeStyle;rounded=0;orthogonalLoop=1;jettySize=auto;html=1;exitX=0.5;exitY=1;exitDx=0;exitDy=0;entryX=0.5;entryY=0;entryDx=0;entryDy=0;noEdgeStyle=1;orthogonal=1;" edge="1" parent="WIyWlLk6GJQsqaUBKTNV-1" source="WIyWlLk6GJQsqaUBKTNV-7" target="M9_Mo9AFQXyw3iN4CUYF-28">
          <mxGeometry relative="1" as="geometry" />
        </mxCell>
        <mxCell id="WIyWlLk6GJQsqaUBKTNV-7" value="Display hard question" style="rounded=1;whiteSpace=wrap;html=1;fontSize=12;glass=0;strokeWidth=1;shadow=0;fillColor=#1A1A1A;fontColor=#FFFFFF;" parent="WIyWlLk6GJQsqaUBKTNV-1" vertex="1">
          <mxGeometry x="667.25" y="221" width="120" height="40" as="geometry" />
        </mxCell>
        <mxCell id="M9_Mo9AFQXyw3iN4CUYF-11" style="edgeStyle=orthogonalEdgeStyle;rounded=0;orthogonalLoop=1;jettySize=auto;html=1;exitX=0.5;exitY=1;exitDx=0;exitDy=0;entryX=0.5;entryY=0;entryDx=0;entryDy=0;noEdgeStyle=1;orthogonal=1;" edge="1" parent="WIyWlLk6GJQsqaUBKTNV-1" source="WIyWlLk6GJQsqaUBKTNV-11" target="M9_Mo9AFQXyw3iN4CUYF-8">
          <mxGeometry relative="1" as="geometry" />
        </mxCell>
        <mxCell id="WIyWlLk6GJQsqaUBKTNV-11" value="Color tile in team color" style="rounded=1;whiteSpace=wrap;html=1;fontSize=12;glass=0;strokeWidth=1;shadow=0;fillColor=#dae8fc;strokeColor=#6c8ebf;" parent="WIyWlLk6GJQsqaUBKTNV-1" vertex="1">
          <mxGeometry x="197.25" y="751" width="120" height="40" as="geometry" />
        </mxCell>
        <mxCell id="M9_Mo9AFQXyw3iN4CUYF-3" style="edgeStyle=orthogonalEdgeStyle;rounded=0;orthogonalLoop=1;jettySize=auto;html=1;exitX=0.5;exitY=1;exitDx=0;exitDy=0;entryX=0.5;entryY=0;entryDx=0;entryDy=0;noEdgeStyle=1;orthogonal=1;" edge="1" parent="WIyWlLk6GJQsqaUBKTNV-1" source="M9_Mo9AFQXyw3iN4CUYF-0" target="M9_Mo9AFQXyw3iN4CUYF-1">
          <mxGeometry relative="1" as="geometry" />
        </mxCell>
        <mxCell id="M9_Mo9AFQXyw3iN4CUYF-0" value="Display regular question" style="rounded=1;whiteSpace=wrap;html=1;fontSize=12;glass=0;strokeWidth=1;shadow=0;" vertex="1" parent="WIyWlLk6GJQsqaUBKTNV-1">
          <mxGeometry x="294.75" y="221" width="120" height="40" as="geometry" />
        </mxCell>
        <mxCell id="M9_Mo9AFQXyw3iN4CUYF-4" style="edgeStyle=orthogonalEdgeStyle;rounded=0;orthogonalLoop=1;jettySize=auto;html=1;exitX=0.5;exitY=1;exitDx=0;exitDy=0;entryX=0.5;entryY=0;entryDx=0;entryDy=0;noEdgeStyle=1;orthogonal=1;" edge="1" parent="WIyWlLk6GJQsqaUBKTNV-1" source="M9_Mo9AFQXyw3iN4CUYF-1" target="M9_Mo9AFQXyw3iN4CUYF-2">
          <mxGeometry relative="1" as="geometry" />
        </mxCell>
        <mxCell id="M9_Mo9AFQXyw3iN4CUYF-1" value="Display hint" style="rounded=1;whiteSpace=wrap;html=1;fontSize=12;glass=0;strokeWidth=1;shadow=0;" vertex="1" parent="WIyWlLk6GJQsqaUBKTNV-1">
          <mxGeometry x="294.75" y="311" width="120" height="40" as="geometry" />
        </mxCell>
        <mxCell id="M9_Mo9AFQXyw3iN4CUYF-6" style="edgeStyle=orthogonalEdgeStyle;rounded=0;orthogonalLoop=1;jettySize=auto;html=1;exitX=0.5;exitY=1;exitDx=0;exitDy=0;entryX=0.5;entryY=0;entryDx=0;entryDy=0;noEdgeStyle=1;orthogonal=1;" edge="1" parent="WIyWlLk6GJQsqaUBKTNV-1" source="M9_Mo9AFQXyw3iN4CUYF-2" target="M9_Mo9AFQXyw3iN4CUYF-5">
          <mxGeometry relative="1" as="geometry" />
        </mxCell>
        <mxCell id="M9_Mo9AFQXyw3iN4CUYF-2" value="Display text input and submit button" style="rounded=1;whiteSpace=wrap;html=1;fontSize=12;glass=0;strokeWidth=1;shadow=0;" vertex="1" parent="WIyWlLk6GJQsqaUBKTNV-1">
          <mxGeometry x="294.75" y="401" width="120" height="40" as="geometry" />
        </mxCell>
        <mxCell id="M9_Mo9AFQXyw3iN4CUYF-12" style="edgeStyle=orthogonalEdgeStyle;rounded=0;orthogonalLoop=1;jettySize=auto;html=1;exitX=0.5;exitY=1;exitDx=0;exitDy=0;entryX=0.5;entryY=0;entryDx=0;entryDy=0;entryPerimeter=0;noEdgeStyle=1;orthogonal=1;" edge="1" parent="WIyWlLk6GJQsqaUBKTNV-1" source="M9_Mo9AFQXyw3iN4CUYF-5" target="M9_Mo9AFQXyw3iN4CUYF-7">
          <mxGeometry relative="1" as="geometry" />
        </mxCell>
        <mxCell id="M9_Mo9AFQXyw3iN4CUYF-5" value="Team answers &lt;br&gt;the question" style="shape=parallelogram;html=1;strokeWidth=1;perimeter=parallelogramPerimeter;whiteSpace=wrap;rounded=1;arcSize=12;size=0.23;fillColor=#dae8fc;strokeColor=#6c8ebf;" vertex="1" parent="WIyWlLk6GJQsqaUBKTNV-1">
          <mxGeometry x="259.75" y="491" width="190" height="60" as="geometry" />
        </mxCell>
        <mxCell id="M9_Mo9AFQXyw3iN4CUYF-9" style="edgeStyle=orthogonalEdgeStyle;rounded=0;orthogonalLoop=1;jettySize=auto;html=1;exitX=0;exitY=0.5;exitDx=0;exitDy=0;exitPerimeter=0;noEdgeStyle=1;orthogonal=1;entryX=0.5;entryY=0;entryDx=0;entryDy=0;" edge="1" parent="WIyWlLk6GJQsqaUBKTNV-1" source="M9_Mo9AFQXyw3iN4CUYF-7" target="WIyWlLk6GJQsqaUBKTNV-11">
          <mxGeometry relative="1" as="geometry" />
        </mxCell>
        <mxCell id="M9_Mo9AFQXyw3iN4CUYF-10" value="Yes" style="edgeLabel;html=1;align=center;verticalAlign=middle;resizable=0;points=[];" vertex="1" connectable="0" parent="M9_Mo9AFQXyw3iN4CUYF-9">
          <mxGeometry x="-0.3143" y="2" relative="1" as="geometry">
            <mxPoint as="offset" />
          </mxGeometry>
        </mxCell>
        <mxCell id="M9_Mo9AFQXyw3iN4CUYF-14" style="edgeStyle=orthogonalEdgeStyle;rounded=0;orthogonalLoop=1;jettySize=auto;html=1;exitX=1;exitY=0.5;exitDx=0;exitDy=0;exitPerimeter=0;entryX=0.5;entryY=0;entryDx=0;entryDy=0;noEdgeStyle=1;orthogonal=1;" edge="1" parent="WIyWlLk6GJQsqaUBKTNV-1" source="M9_Mo9AFQXyw3iN4CUYF-7" target="M9_Mo9AFQXyw3iN4CUYF-17">
          <mxGeometry relative="1" as="geometry">
            <mxPoint x="330" y="720" as="targetPoint" />
          </mxGeometry>
        </mxCell>
        <mxCell id="M9_Mo9AFQXyw3iN4CUYF-18" value="No" style="edgeLabel;html=1;align=center;verticalAlign=middle;resizable=0;points=[];" vertex="1" connectable="0" parent="M9_Mo9AFQXyw3iN4CUYF-14">
          <mxGeometry x="-0.1056" y="4" relative="1" as="geometry">
            <mxPoint as="offset" />
          </mxGeometry>
        </mxCell>
        <mxCell id="M9_Mo9AFQXyw3iN4CUYF-7" value="Correct answer?" style="strokeWidth=1;html=1;shape=mxgraph.flowchart.decision;whiteSpace=wrap;" vertex="1" parent="WIyWlLk6GJQsqaUBKTNV-1">
          <mxGeometry x="304.75" y="601" width="100" height="100" as="geometry" />
        </mxCell>
        <mxCell id="M9_Mo9AFQXyw3iN4CUYF-16" style="edgeStyle=orthogonalEdgeStyle;rounded=0;orthogonalLoop=1;jettySize=auto;html=1;exitX=0.5;exitY=1;exitDx=0;exitDy=0;noEdgeStyle=1;orthogonal=1;" edge="1" parent="WIyWlLk6GJQsqaUBKTNV-1" source="M9_Mo9AFQXyw3iN4CUYF-8" target="M9_Mo9AFQXyw3iN4CUYF-15">
          <mxGeometry relative="1" as="geometry" />
        </mxCell>
        <mxCell id="M9_Mo9AFQXyw3iN4CUYF-8" value="Display positive feedback" style="rounded=1;whiteSpace=wrap;html=1;fontSize=12;glass=0;strokeWidth=1;shadow=0;" vertex="1" parent="WIyWlLk6GJQsqaUBKTNV-1">
          <mxGeometry x="197.25" y="841" width="120" height="40" as="geometry" />
        </mxCell>
        <mxCell id="M9_Mo9AFQXyw3iN4CUYF-21" style="edgeStyle=orthogonalEdgeStyle;rounded=0;orthogonalLoop=1;jettySize=auto;html=1;exitX=0.5;exitY=1;exitDx=0;exitDy=0;entryX=0.5;entryY=0;entryDx=0;entryDy=0;entryPerimeter=0;noEdgeStyle=1;orthogonal=1;" edge="1" parent="WIyWlLk6GJQsqaUBKTNV-1" source="M9_Mo9AFQXyw3iN4CUYF-13" target="M9_Mo9AFQXyw3iN4CUYF-20">
          <mxGeometry relative="1" as="geometry" />
        </mxCell>
        <mxCell id="M9_Mo9AFQXyw3iN4CUYF-13" value="2nd team answers &lt;br&gt;the question" style="shape=parallelogram;html=1;strokeWidth=1;perimeter=parallelogramPerimeter;whiteSpace=wrap;rounded=1;arcSize=12;size=0.23;fillColor=#ffcccc;strokeColor=#36393d;" vertex="1" parent="WIyWlLk6GJQsqaUBKTNV-1">
          <mxGeometry x="357.25" y="841" width="190" height="60" as="geometry" />
        </mxCell>
        <mxCell id="M9_Mo9AFQXyw3iN4CUYF-15" value="Transfer move to another team" style="rounded=1;whiteSpace=wrap;html=1;fontSize=12;glass=0;strokeWidth=1;shadow=0;" vertex="1" parent="WIyWlLk6GJQsqaUBKTNV-1">
          <mxGeometry x="197.25" y="931" width="120" height="40" as="geometry" />
        </mxCell>
        <mxCell id="M9_Mo9AFQXyw3iN4CUYF-19" style="edgeStyle=orthogonalEdgeStyle;rounded=0;orthogonalLoop=1;jettySize=auto;html=1;exitX=0.5;exitY=1;exitDx=0;exitDy=0;noEdgeStyle=1;orthogonal=1;" edge="1" parent="WIyWlLk6GJQsqaUBKTNV-1" source="M9_Mo9AFQXyw3iN4CUYF-17" target="M9_Mo9AFQXyw3iN4CUYF-13">
          <mxGeometry relative="1" as="geometry" />
        </mxCell>
        <mxCell id="M9_Mo9AFQXyw3iN4CUYF-17" value="Display negative feedback" style="rounded=1;whiteSpace=wrap;html=1;fontSize=12;glass=0;strokeWidth=1;shadow=0;" vertex="1" parent="WIyWlLk6GJQsqaUBKTNV-1">
          <mxGeometry x="392.25" y="751" width="120" height="40" as="geometry" />
        </mxCell>
        <mxCell id="M9_Mo9AFQXyw3iN4CUYF-23" value="Yes" style="edgeStyle=orthogonalEdgeStyle;rounded=0;orthogonalLoop=1;jettySize=auto;html=1;exitX=1;exitY=0.5;exitDx=0;exitDy=0;exitPerimeter=0;entryX=0.5;entryY=0;entryDx=0;entryDy=0;noEdgeStyle=1;orthogonal=1;" edge="1" parent="WIyWlLk6GJQsqaUBKTNV-1" source="M9_Mo9AFQXyw3iN4CUYF-20" target="M9_Mo9AFQXyw3iN4CUYF-22">
          <mxGeometry relative="1" as="geometry" />
        </mxCell>
        <mxCell id="M9_Mo9AFQXyw3iN4CUYF-26" value="No" style="edgeStyle=orthogonalEdgeStyle;rounded=0;orthogonalLoop=1;jettySize=auto;html=1;exitX=0;exitY=0.5;exitDx=0;exitDy=0;exitPerimeter=0;entryX=0.5;entryY=0;entryDx=0;entryDy=0;noEdgeStyle=1;orthogonal=1;" edge="1" parent="WIyWlLk6GJQsqaUBKTNV-1" source="M9_Mo9AFQXyw3iN4CUYF-20" target="M9_Mo9AFQXyw3iN4CUYF-27">
          <mxGeometry relative="1" as="geometry">
            <mxPoint x="670" y="930" as="targetPoint" />
          </mxGeometry>
        </mxCell>
        <mxCell id="M9_Mo9AFQXyw3iN4CUYF-20" value="Correct answer?" style="strokeWidth=1;html=1;shape=mxgraph.flowchart.decision;whiteSpace=wrap;" vertex="1" parent="WIyWlLk6GJQsqaUBKTNV-1">
          <mxGeometry x="402.25" y="951" width="100" height="100" as="geometry" />
        </mxCell>
        <mxCell id="M9_Mo9AFQXyw3iN4CUYF-25" style="edgeStyle=orthogonalEdgeStyle;rounded=0;orthogonalLoop=1;jettySize=auto;html=1;exitX=0.5;exitY=1;exitDx=0;exitDy=0;entryX=0.5;entryY=0;entryDx=0;entryDy=0;noEdgeStyle=1;orthogonal=1;" edge="1" parent="WIyWlLk6GJQsqaUBKTNV-1" source="M9_Mo9AFQXyw3iN4CUYF-22" target="M9_Mo9AFQXyw3iN4CUYF-24">
          <mxGeometry relative="1" as="geometry" />
        </mxCell>
        <mxCell id="M9_Mo9AFQXyw3iN4CUYF-22" value="Color tile in 2nd team color" style="rounded=1;whiteSpace=wrap;html=1;fontSize=12;glass=0;strokeWidth=1;shadow=0;fillColor=#f8cecc;strokeColor=#b85450;" vertex="1" parent="WIyWlLk6GJQsqaUBKTNV-1">
          <mxGeometry x="472.25" y="1101" width="120" height="40" as="geometry" />
        </mxCell>
        <mxCell id="M9_Mo9AFQXyw3iN4CUYF-24" value="Display positive feedback" style="rounded=1;whiteSpace=wrap;html=1;fontSize=12;glass=0;strokeWidth=1;shadow=0;" vertex="1" parent="WIyWlLk6GJQsqaUBKTNV-1">
          <mxGeometry x="472.25" y="1191" width="120" height="40" as="geometry" />
        </mxCell>
        <mxCell id="M9_Mo9AFQXyw3iN4CUYF-43" style="edgeStyle=orthogonalEdgeStyle;rounded=0;orthogonalLoop=1;jettySize=auto;html=1;exitX=0.5;exitY=1;exitDx=0;exitDy=0;noEdgeStyle=1;orthogonal=1;" edge="1" parent="WIyWlLk6GJQsqaUBKTNV-1" source="M9_Mo9AFQXyw3iN4CUYF-27" target="M9_Mo9AFQXyw3iN4CUYF-42">
          <mxGeometry relative="1" as="geometry" />
        </mxCell>
        <mxCell id="M9_Mo9AFQXyw3iN4CUYF-27" value="Color tile in black" style="rounded=1;whiteSpace=wrap;html=1;fontSize=12;glass=0;strokeWidth=1;shadow=0;fillColor=#1A1A1A;fontColor=#FFFFFF;" vertex="1" parent="WIyWlLk6GJQsqaUBKTNV-1">
          <mxGeometry x="312.25" y="1101" width="120" height="40" as="geometry" />
        </mxCell>
        <mxCell id="M9_Mo9AFQXyw3iN4CUYF-31" style="edgeStyle=orthogonalEdgeStyle;rounded=0;orthogonalLoop=1;jettySize=auto;html=1;exitX=0.5;exitY=1;exitDx=0;exitDy=0;noEdgeStyle=1;orthogonal=1;" edge="1" parent="WIyWlLk6GJQsqaUBKTNV-1" source="M9_Mo9AFQXyw3iN4CUYF-28" target="M9_Mo9AFQXyw3iN4CUYF-30">
          <mxGeometry relative="1" as="geometry" />
        </mxCell>
        <mxCell id="M9_Mo9AFQXyw3iN4CUYF-28" value="Display yes/no buttons" style="rounded=1;whiteSpace=wrap;html=1;fontSize=12;glass=0;strokeWidth=1;shadow=0;" vertex="1" parent="WIyWlLk6GJQsqaUBKTNV-1">
          <mxGeometry x="667.25" y="311" width="120" height="40" as="geometry" />
        </mxCell>
        <mxCell id="M9_Mo9AFQXyw3iN4CUYF-33" style="edgeStyle=orthogonalEdgeStyle;rounded=0;orthogonalLoop=1;jettySize=auto;html=1;exitX=0.5;exitY=1;exitDx=0;exitDy=0;noEdgeStyle=1;orthogonal=1;" edge="1" parent="WIyWlLk6GJQsqaUBKTNV-1" source="M9_Mo9AFQXyw3iN4CUYF-30" target="M9_Mo9AFQXyw3iN4CUYF-32">
          <mxGeometry relative="1" as="geometry" />
        </mxCell>
        <mxCell id="M9_Mo9AFQXyw3iN4CUYF-30" value="Team answers &lt;br&gt;the question" style="shape=parallelogram;html=1;strokeWidth=1;perimeter=parallelogramPerimeter;whiteSpace=wrap;rounded=1;arcSize=12;size=0.23;fillColor=#cce5ff;strokeColor=#36393d;" vertex="1" parent="WIyWlLk6GJQsqaUBKTNV-1">
          <mxGeometry x="632.25" y="401" width="190" height="60" as="geometry" />
        </mxCell>
        <mxCell id="M9_Mo9AFQXyw3iN4CUYF-40" style="edgeStyle=orthogonalEdgeStyle;rounded=0;orthogonalLoop=1;jettySize=auto;html=1;exitX=0;exitY=0.5;exitDx=0;exitDy=0;exitPerimeter=0;entryX=0.5;entryY=0;entryDx=0;entryDy=0;noEdgeStyle=1;orthogonal=1;" edge="1" parent="WIyWlLk6GJQsqaUBKTNV-1" source="M9_Mo9AFQXyw3iN4CUYF-32" target="M9_Mo9AFQXyw3iN4CUYF-35">
          <mxGeometry relative="1" as="geometry" />
        </mxCell>
        <mxCell id="M9_Mo9AFQXyw3iN4CUYF-41" value="Yes" style="edgeLabel;html=1;align=center;verticalAlign=middle;resizable=0;points=[];" vertex="1" connectable="0" parent="M9_Mo9AFQXyw3iN4CUYF-40">
          <mxGeometry x="-0.2577" y="-2" relative="1" as="geometry">
            <mxPoint as="offset" />
          </mxGeometry>
        </mxCell>
        <mxCell id="M9_Mo9AFQXyw3iN4CUYF-44" style="edgeStyle=orthogonalEdgeStyle;rounded=0;orthogonalLoop=1;jettySize=auto;html=1;exitX=1;exitY=0.5;exitDx=0;exitDy=0;exitPerimeter=0;entryX=0.5;entryY=0;entryDx=0;entryDy=0;noEdgeStyle=1;orthogonal=1;" edge="1" parent="WIyWlLk6GJQsqaUBKTNV-1" source="M9_Mo9AFQXyw3iN4CUYF-32" target="M9_Mo9AFQXyw3iN4CUYF-47">
          <mxGeometry relative="1" as="geometry">
            <mxPoint x="940" y="450" as="targetPoint" />
          </mxGeometry>
        </mxCell>
        <mxCell id="M9_Mo9AFQXyw3iN4CUYF-45" value="No" style="edgeLabel;html=1;align=center;verticalAlign=middle;resizable=0;points=[];" vertex="1" connectable="0" parent="M9_Mo9AFQXyw3iN4CUYF-44">
          <mxGeometry x="0.6649" y="-1" relative="1" as="geometry">
            <mxPoint x="-4" y="-34" as="offset" />
          </mxGeometry>
        </mxCell>
        <mxCell id="M9_Mo9AFQXyw3iN4CUYF-32" value="Correct answer?" style="strokeWidth=1;html=1;shape=mxgraph.flowchart.decision;whiteSpace=wrap;" vertex="1" parent="WIyWlLk6GJQsqaUBKTNV-1">
          <mxGeometry x="677.25" y="511" width="100" height="100" as="geometry" />
        </mxCell>
        <mxCell id="M9_Mo9AFQXyw3iN4CUYF-34" style="edgeStyle=orthogonalEdgeStyle;rounded=0;orthogonalLoop=1;jettySize=auto;html=1;exitX=0.5;exitY=1;exitDx=0;exitDy=0;entryX=0.5;entryY=0;entryDx=0;entryDy=0;noEdgeStyle=1;orthogonal=1;" edge="1" parent="WIyWlLk6GJQsqaUBKTNV-1" source="M9_Mo9AFQXyw3iN4CUYF-35" target="M9_Mo9AFQXyw3iN4CUYF-38">
          <mxGeometry relative="1" as="geometry" />
        </mxCell>
        <mxCell id="M9_Mo9AFQXyw3iN4CUYF-35" value="Color tile in team color" style="rounded=1;whiteSpace=wrap;html=1;fontSize=12;glass=0;strokeWidth=1;shadow=0;fillColor=#cce5ff;strokeColor=#36393d;" vertex="1" parent="WIyWlLk6GJQsqaUBKTNV-1">
          <mxGeometry x="587.25" y="661" width="120" height="40" as="geometry" />
        </mxCell>
        <mxCell id="M9_Mo9AFQXyw3iN4CUYF-37" style="edgeStyle=orthogonalEdgeStyle;rounded=0;orthogonalLoop=1;jettySize=auto;html=1;exitX=0.5;exitY=1;exitDx=0;exitDy=0;noEdgeStyle=1;orthogonal=1;" edge="1" parent="WIyWlLk6GJQsqaUBKTNV-1" source="M9_Mo9AFQXyw3iN4CUYF-38" target="M9_Mo9AFQXyw3iN4CUYF-39">
          <mxGeometry relative="1" as="geometry" />
        </mxCell>
        <mxCell id="M9_Mo9AFQXyw3iN4CUYF-38" value="Display positive feedback" style="rounded=1;whiteSpace=wrap;html=1;fontSize=12;glass=0;strokeWidth=1;shadow=0;" vertex="1" parent="WIyWlLk6GJQsqaUBKTNV-1">
          <mxGeometry x="587.25" y="751" width="120" height="40" as="geometry" />
        </mxCell>
        <mxCell id="M9_Mo9AFQXyw3iN4CUYF-39" value="Transfer move to another team" style="rounded=1;whiteSpace=wrap;html=1;fontSize=12;glass=0;strokeWidth=1;shadow=0;" vertex="1" parent="WIyWlLk6GJQsqaUBKTNV-1">
          <mxGeometry x="587.25" y="841" width="120" height="40" as="geometry" />
        </mxCell>
        <mxCell id="M9_Mo9AFQXyw3iN4CUYF-42" value="Display negative feedback" style="rounded=1;whiteSpace=wrap;html=1;fontSize=12;glass=0;strokeWidth=1;shadow=0;" vertex="1" parent="WIyWlLk6GJQsqaUBKTNV-1">
          <mxGeometry x="312.25" y="1191" width="120" height="40" as="geometry" />
        </mxCell>
        <mxCell id="M9_Mo9AFQXyw3iN4CUYF-46" style="edgeStyle=orthogonalEdgeStyle;rounded=0;orthogonalLoop=1;jettySize=auto;html=1;exitX=0.5;exitY=1;exitDx=0;exitDy=0;entryX=0.5;entryY=0;entryDx=0;entryDy=0;noEdgeStyle=1;orthogonal=1;" edge="1" parent="WIyWlLk6GJQsqaUBKTNV-1" source="M9_Mo9AFQXyw3iN4CUYF-47" target="M9_Mo9AFQXyw3iN4CUYF-48">
          <mxGeometry relative="1" as="geometry" />
        </mxCell>
        <mxCell id="M9_Mo9AFQXyw3iN4CUYF-47" value="Color tile in 2nd team color" style="rounded=1;whiteSpace=wrap;html=1;fontSize=12;glass=0;strokeWidth=1;shadow=0;fillColor=#ffcccc;strokeColor=#36393d;" vertex="1" parent="WIyWlLk6GJQsqaUBKTNV-1">
          <mxGeometry x="747.25" y="661" width="120" height="40" as="geometry" />
        </mxCell>
        <mxCell id="M9_Mo9AFQXyw3iN4CUYF-48" value="Display negative feedback" style="rounded=1;whiteSpace=wrap;html=1;fontSize=12;glass=0;strokeWidth=1;shadow=0;" vertex="1" parent="WIyWlLk6GJQsqaUBKTNV-1">
          <mxGeometry x="747.25" y="751" width="120" height="40" as="geometry" />
        </mxCell>
      </root>
    </mxGraphModel>
  </diagram>
</mxfile>
